Patient4_TMGait_0pt3_02_right_16_EMG.mot
version=1
nRows=20
nColumns=33
inDegrees=no
endheader
time	1LAddLong	2LGlutMax	3LGlutMed	4LIliopsoas	5LSemiMemb	6LBicFemLong	7LRecFem	8LVastMed	9LVastLat	10LGasMed	11LTibAnt	12lTibPost	13LPeroneusLong	14LSol	15LExtDigLong	16LFlexDigLong	17RAddLong	18RGlutMax	19RGlutMed	20RIliopsoas	21RSemiMemb	22RBicFemLong	23RRecFem	24RVastMed	25RVastLat	26RGasMed	27RTibAnt	28RTibPost	29RPeroneusLong	30RSol	31RExtDigLong	32RFlexDigLong
30.04	-0.00885	0.02121	0.062561	0.021362	-0.049133	-0.25803	0.057068	0.013123	0.18143	-0.00885	-0.15717	0.010986	0.072327	0.018921	-0.089569	0.005951	-0.031128	0.64056	0.50751	-0.054626	0.022888	0.014038	0.033112	-0.098724	0.013275	0.000153	0.43045	0.000916	-0.035095	0.11185	-0.008545	-0.002747
30.041	-0.024872	0.057526	0.014954	0.010376	-0.10178	0.089111	0.056915	0.030518	-0.016479	0.028992	-0.089569	0.007172	0.015564	0.067139	-0.11063	0.017242	0.042877	0.74768	0.65826	-0.32608	0.022888	0.010529	0.00824	-0.04425	0.005341	-0.011444	0.56259	-0.002136	-0.096741	0.16571	-0.006256	0.005646
30.042	-0.025482	0.065613	0.049744	0.000153	-0.15579	0.30914	0.0383	0.038757	-0.22629	0.005188	-0.026855	0.00885	0.003052	0.031281	-0.1532	0.020447	0.038147	0.77774	0.22476	-0.33127	0.033112	0.014496	0.004883	0.026703	0.022278	-0.014343	0.58411	-0.001526	-0.066528	0.10147	-0.005493	0.003967
30.043	-0.016174	0.033722	0.10147	-0.004578	-0.0914	0.36606	0.015106	0.030823	-0.23666	-0.015106	-0.010986	0.018463	-0.010376	-0.047302	-0.037384	0.004272	0.03006	0.80383	0.05188	-0.33966	0.030823	0.015106	-0.047302	0.1239	0.034485	-0.014648	0.25818	-0.001678	-0.043182	0.052185	0.007477	-0.00351
30.044	-0.007782	-0.033569	0.21179	-0.010376	0.031586	0.21042	-0.082397	0.025635	-0.003357	0.024109	-0.015869	0.016479	-0.028687	-0.076904	-0.12665	0.013428	0.043335	0.79086	0.067291	-0.31265	0.032806	0.012512	-0.052032	0.068359	0.026245	-0.009613	-0.20645	0.000153	-0.005188	0.007782	-0.003204	-0.001373
30.045	-0.002441	-0.075378	0.023346	-0.012665	0.016937	0.005188	0.022583	0.020752	0.11063	0.028076	0.011292	0.020142	-0.013428	0.002289	-0.026093	0.008087	0.02655	0.73868	0.093689	-0.11215	0.033569	0.017242	-0.033722	0.072937	0.022278	-0.002441	-0.54123	-0.004272	0.044556	-0.098724	-0.003967	-0.005493
30.046	-0.003052	-0.18372	-0.037231	-0.003662	0.020599	-0.12146	0.19852	0.019226	-0.033722	0.003052	0.047913	0.013733	-0.005493	0.033112	-0.025024	0.028381	-0.009918	0.69519	0.28961	0.10254	0.047302	0.018921	-0.055847	0.079041	0.038147	0.003052	-0.5838	0.006714	0.060272	-0.14389	-0.00351	0.001984
30.047	0.00885	-0.26764	-0.14801	0.004883	0.003357	-0.11383	0.39551	0.003357	-0.12375	-0.008392	0.042114	0.016479	-0.053558	0.036163	-0.064545	0.040436	-0.008545	0.61722	0.37018	0.15305	0.036926	0.013428	-0.044861	0.041199	0.036621	0.00473	-0.67001	-0.001678	0.059509	0.001373	-0.002899	0.006409
30.048	0.031281	-0.2475	-0.19241	-0.00946	0.046234	-0.027924	0.30334	0.002441	-0.10056	0.010834	-0.034637	0.016479	-0.044708	0.050964	-0.018616	0.040741	-0.019836	0.58273	0.31433	0.04776	0.040283	0.016937	-0.059357	0.033112	0.035553	0.010529	-0.75272	0.003662	0.080566	-0.04425	-0.003662	0.009308
30.049	0.036163	-0.18112	-0.12604	-0.014191	0.086517	0.063782	0.22751	-0.00351	-0.25436	0.004425	-0.01297	0.023346	0.21286	0.045471	0.074921	0.03891	-0.021667	0.57037	0.49972	-0.085907	0.038757	0.023041	-0.036926	0.056305	0.019836	0.00885	-0.31799	0.01236	0.084381	-0.19318	-0.001831	0.007019
30.05	0.051117	-0.18982	-0.10544	-0.009003	0.050964	-0.015106	0.067139	-0.006866	-0.28259	0.019531	-0.02533	0.009918	0.29236	0.010681	0.076141	0.03952	0.008087	0.55084	0.48401	-0.1004	0.054169	-0.019226	-0.015411	0.068207	0.018005	0.014496	-0.13931	0.007477	-0.003204	-0.20996	-0.00412	0.014191
30.051	0.060883	-0.16983	0.002136	0	0.015411	-0.11978	-0.13397	-0.000458	-0.10117	0.06073	-0.010223	0.016174	0.22934	0.008545	0.068054	0.037537	0.028687	0.46341	0.27908	0.024872	0.044708	-0.040131	0.021362	0.057678	-0.010681	0.004578	0.1474	0.00473	-0.12772	-0.16419	-0.006561	0.007629
30.052	0.068512	-0.20462	0.000153	0.011139	0.003052	-0.084991	-0.31982	0.022278	0.19653	0.080872	0	0.009918	-0.21805	0.007324	0.13001	0.047302	0.035553	0.43655	-0.22751	0.10437	0.03479	-0.044556	-0.063629	-0.019073	-0.016785	0.003815	0.28488	0.004578	-0.13886	-0.20874	-0.00473	0.006561
30.053	0.048065	-0.1619	0.20706	0.025482	0.043945	-0.037537	-0.25803	0.006866	0.44678	0.060577	0.02121	0.015106	-0.1503	0.072784	0.11948	0.034637	-0.008545	0.37445	-0.32547	0.058441	0.029907	-0.044403	-0.05249	-0.052643	-0.031891	0.009003	0.44327	0.006561	-0.23132	-0.23056	-0.006866	-0.002594
30.054	0.054016	-0.19394	0.076447	0.014954	0.058899	0.09964	-0.36545	-0.014343	0.50568	0.050659	0.022125	0.02533	0.004272	0.14954	0.1033	0.023041	-0.016479	0.28686	-0.002136	-0.000153	0.037537	-0.013123	-0.045166	-0.018921	-0.024109	-0.000153	0.59387	0.004272	-0.28183	-0.14542	-0.005493	0.010529
30.055	0.043488	-0.1619	0.022278	-0.000305	0.0354	0.12421	-0.44388	-0.011444	0.39734	0.056458	0.005341	0.017395	-0.12344	0.14923	0.092163	-0.014496	-0.023651	0.22034	0.52841	0.030823	0.021667	-0.016174	-0.077972	-0.016937	-0.018158	-0.000458	0.4425	0.003204	-0.15518	-0.068512	-0.004578	-0.000305
30.056	0.032501	-0.1268	0.09079	0.025482	0.037384	0.079956	-0.21103	-0.042114	0.19745	-0.082092	-0.016937	-0.010223	-0.049133	0.13565	0.11932	0.033569	-0.034637	0.092926	0.41061	0.00885	0.035858	0.013733	-0.079346	-0.025635	-0.012665	-0.01236	0.18753	0.001221	-0.19012	0.003967	-0.007324	0.006409
30.057	0.020142	-0.085602	0.062561	0.018616	0.018005	-0.1564	0.12375	-0.053864	-0.025635	0.020294	-0.042419	-0.025177	0.080872	-0.011139	-0.090637	0.10544	-0.012054	0.070343	0.13336	0.096283	0.04715	0.016785	-0.064392	-0.02594	0.019226	-0.007782	-0.23514	0.003204	-0.19836	-0.002136	-0.002747	0.001068
30.058	0.010376	0.015259	0.053711	0.01236	0.013428	-0.27084	0.20981	-0.019836	-0.10315	0.30884	-0.010529	-0.000916	0.45303	-0.16876	-0.077209	0.1178	0.012817	0.088043	0.21576	0.29053	0.047913	0.029602	-0.052795	-0.031738	0.008545	-0.004578	0.007172	0.005493	-0.18066	-0.050812	-0.002289	-0.005951
30.059	-0.003815	0.016327	0.020905	0.010986	0.006409	-0.2594	0.14969	0.018311	-0.019531	0.23972	-0.022125	0.020752	0.74005	-0.26916	-0.005188	0.019226	0.019379	0.067444	0.067902	0.22598	0.084076	0.038757	-0.003815	0.005798	0.024719	-0.002441	0.63309	0.002747	-0.22903	-0.043335	-0.001221	0.001831
